<?xml version="1.0" encoding="UTF-8" standalone="no"?>
<svg
   xmlns:dc="http://purl.org/dc/elements/1.1/"
   xmlns:cc="http://creativecommons.org/ns#"
   xmlns:rdf="http://www.w3.org/1999/02/22-rdf-syntax-ns#"
   xmlns:svg="http://www.w3.org/2000/svg"
   xmlns="http://www.w3.org/2000/svg"
   xmlns:sodipodi="http://sodipodi.sourceforge.net/DTD/sodipodi-0.dtd"
   xmlns:inkscape="http://www.inkscape.org/namespaces/inkscape"
   width="500px"
   height="500px"
   version="1.1"
   id="svg2490"
   sodipodi:version="0.32"
   inkscape:version="0.46"
   sodipodi:docname="Logo.svg"
   inkscape:output_extension="org.inkscape.output.svg.inkscape"
   inkscape:export-filename="C:\Dev\EclipseWorkspace\BattlegroundAndroid\res\drawable\icon.png"
   inkscape:export-xdpi="8.6400003"
   inkscape:export-ydpi="8.6400003"
   enable-background="new">
  <metadata
     id="metadata2553">
    <rdf:RDF>
      <cc:Work
         rdf:about="">
        <dc:format>image/svg+xml</dc:format>
        <dc:type
           rdf:resource="http://purl.org/dc/dcmitype/StillImage" />
      </cc:Work>
    </rdf:RDF>
  </metadata>
  <defs
     id="defs2551">
    <linearGradient
       id="linearGradient3837">
      <stop
         style="stop-color: rgb(214, 214, 214); stop-opacity: 1;"
         offset="0"
         id="stop3839" />
      <stop
         style="stop-color:#000000;stop-opacity:1;"
         offset="1"
         id="stop3841" />
    </linearGradient>
    <linearGradient
       id="linearGradient3873">
      <stop
         style="stop-color: rgb(247, 247, 247); stop-opacity: 1;"
         offset="0"
         id="stop3875" />
      <stop
         style="stop-color: rgb(0, 0, 0); stop-opacity: 1;"
         offset="1"
         id="stop3877" />
    </linearGradient>
    <inkscape:perspective
       sodipodi:type="inkscape:persp3d"
       inkscape:vp_x="0 : 250 : 1"
       inkscape:vp_y="0 : 1000 : 0"
       inkscape:vp_z="500 : 250 : 1"
       inkscape:persp3d-origin="250 : 166.66667 : 1"
       id="perspective2555" />
    <inkscape:perspective
       sodipodi:type="inkscape:persp3d"
       inkscape:vp_x="0 : 526.18109 : 1"
       inkscape:vp_y="0 : 1000 : 0"
       inkscape:vp_z="744.09448 : 526.18109 : 1"
       inkscape:persp3d-origin="372.04724 : 350.78739 : 1"
       id="perspective3364" />
    <inkscape:perspective
       id="perspective10"
       inkscape:persp3d-origin="372.04724 : 350.78739 : 1"
       inkscape:vp_z="744.09448 : 526.18109 : 1"
       inkscape:vp_y="0 : 1000 : 0"
       inkscape:vp_x="0 : 526.18109 : 1"
       sodipodi:type="inkscape:persp3d" />
    <filter
       inkscape:collect="always"
       id="filter4448"
       x="-0.098372575"
       width="1.1967451"
       y="-0.153817"
       height="1.307634">
      <feGaussianBlur
         inkscape:collect="always"
         stdDeviation="19.212843"
         id="feGaussianBlur4450" />
    </filter>
    <filter
       inkscape:collect="always"
       id="filter4452">
      <feBlend
         inkscape:collect="always"
         mode="multiply"
         in2="BackgroundImage"
         id="feBlend4454" />
    </filter>
  </defs>
  <sodipodi:namedview
     inkscape:window-height="834"
     inkscape:window-width="1262"
     inkscape:pageshadow="2"
     inkscape:pageopacity="0.0"
     guidetolerance="10.0"
     gridtolerance="10.0"
     objecttolerance="10.0"
     borderopacity="1.0"
     bordercolor="#666666"
     pagecolor="#ffffff"
     id="base"
     showgrid="false"
     inkscape:zoom="1.61"
     inkscape:cx="249.77674"
     inkscape:cy="145.82082"
     inkscape:window-x="475"
     inkscape:window-y="182"
     inkscape:current-layer="layer1" />
  <g
     inkscape:groupmode="layer"
     id="layer1"
     inkscape:label="Android"
     style="display:inline"
     sodipodi:insensitive="true">
    <g
       id="g4258">
      <path
         id="path4150"
         d="M 168.61562,278.17262 L 129.12228,215.20384 L 77.797474,189.16901 L 60.541962,222.64351 L 75.089062,260.67541 L 168.61562,278.17262 z"
         style="fill:#babdb6;fill-opacity:1;fill-rule:evenodd;stroke:#888a85;stroke-width:2;stroke-linecap:butt;stroke-linejoin:miter;stroke-miterlimit:4;stroke-dasharray:none;stroke-opacity:1" />
      <path
         style="fill:#babdb6;fill-opacity:1;fill-rule:evenodd;stroke:#888a85;stroke-width:2;stroke-linecap:butt;stroke-linejoin:miter;stroke-miterlimit:4;stroke-dasharray:none;stroke-opacity:1"
         d="M 141.35784,336.81317 L 67.374311,343.97054 L 15.422413,319.21073 L 31.402905,285.10913 L 70.406686,273.4152 L 141.35784,336.81317 z"
         id="path3387" />
      <path
         id="path4153"
         d="M 483.15899,467.68574 C 483.15899,467.68574 459.51547,377.14969 376.79152,336.1987 C 292.01482,294.23153 71.882297,255.90659 71.882303,255.90659 L 61.829196,276.34677 C 61.829183,276.34678 226.56245,427.31061 311.55411,468.84073 C 394.4878,509.36526 480.63102,472.82567 480.63102,472.82567 L 483.15899,467.68574 z"
         style="fill:#babdb6;fill-opacity:1;fill-rule:nonzero;stroke:none;stroke-width:1.95687926;stroke-linecap:square;stroke-linejoin:round;stroke-miterlimit:4;stroke-dashoffset:0;stroke-opacity:1" />
      <path
         sodipodi:nodetypes="cscccc"
         id="path3393"
         d="M 480.77614,467.70137 C 480.77614,467.70137 454.7706,380.35807 372.04665,339.40708 C 287.26995,297.43992 67.137424,259.11497 67.137431,259.11498 C 170.49014,285.82767 281.73427,320.08444 378.60743,364.80211 C 433.15322,391.80401 465.41161,435.87509 480.3986,467.66413 L 480.77614,467.70137 z"
         style="fill:#888a85;fill-opacity:1;fill-rule:nonzero;stroke:none;stroke-width:1.95687926;stroke-linecap:square;stroke-linejoin:round;stroke-miterlimit:4;stroke-dashoffset:0;stroke-opacity:1" />
      <path
         id="path3398"
         d="M 444.09772,479.69778 C 402.73182,482.00071 360.31046,473.16624 324.52837,451.77278 C 255.09833,414.07652 189.39098,370.01975 125.81113,323.2289 C 175.64223,365.99707 226.66197,407.73317 281.43523,443.95762 C 307.7575,461.14478 336.59122,476.23458 367.99482,480.7816 C 393.24094,484.98303 419.23585,484.27368 444.35574,479.67623 L 444.09772,479.69778 z"
         style="fill:#eeeeec;fill-opacity:1;fill-rule:nonzero;stroke:none;stroke-width:1.95687926;stroke-linecap:square;stroke-linejoin:round;stroke-miterlimit:4;stroke-dashoffset:0;stroke-opacity:1" />
      <path
         id="path4157"
         d="M 402.9077,350.70811 C 402.519,350.47705 402.11736,350.24797 401.70908,350.04716 C 384.43914,341.55328 356.16269,363.65395 338.592,399.37903 C 321.02131,435.10412 320.77722,470.99197 338.04717,479.48586 C 338.45545,479.68666 338.88207,479.86494 339.30236,480.03178 C 323.25822,470.48148 323.89367,435.45997 341.04581,400.5859 C 358.19795,365.71182 385.54929,343.83001 402.9077,350.70811 z"
         style="fill:#888a85;fill-opacity:1;fill-rule:nonzero;stroke:none;stroke-width:2;stroke-linecap:square;stroke-linejoin:round;stroke-miterlimit:4;stroke-dasharray:none;stroke-dashoffset:0;stroke-opacity:1" />
      <rect
         transform="matrix(-0.4413394,0.8973402,-0.8973402,-0.4413394,0,0)"
         y="-272.65323"
         x="202.19565"
         height="122.90691"
         width="11.367112"
         id="rect4159"
         style="fill:#888a85;fill-opacity:1;fill-rule:nonzero;stroke:none;stroke-width:2;stroke-linecap:square;stroke-linejoin:round;stroke-miterlimit:4;stroke-dasharray:none;stroke-dashoffset:0;stroke-opacity:1" />
      <path
         id="path3413"
         d="M 145.32979,312.63985 C 145.32979,312.63985 118.61685,309.00228 120.26791,318.52327 C 121.91898,328.04426 65.317018,272.49539 65.317018,272.49539 L 145.32979,312.63985 z"
         style="fill:#888a85;fill-opacity:1;fill-rule:evenodd;stroke:none;stroke-width:1px;stroke-linecap:butt;stroke-linejoin:miter;stroke-opacity:1" />
      <path
         transform="matrix(-0.3011026,0.6122078,-0.6122078,-0.3011026,398.7452,307.07507)"
         sodipodi:type="arc"
         style="fill:#888a85;fill-opacity:1;fill-rule:nonzero;stroke:none;stroke-width:2;stroke-linecap:square;stroke-linejoin:round;stroke-miterlimit:4;stroke-dasharray:none;stroke-dashoffset:0;stroke-opacity:1"
         id="path3463"
         sodipodi:cx="228.04193"
         sodipodi:cy="-10.065757"
         sodipodi:rx="8.1317282"
         sodipodi:ry="8.1317282"
         d="M 236.17366,-10.065757 A 8.1317282,8.1317282 0 1 1 219.9102,-10.065757 A 8.1317282,8.1317282 0 1 1 236.17366,-10.065757 z" />
      <path
         d="M 236.17366,-10.065757 A 8.1317282,8.1317282 0 1 1 219.9102,-10.065757 A 8.1317282,8.1317282 0 1 1 236.17366,-10.065757 z"
         sodipodi:ry="8.1317282"
         sodipodi:rx="8.1317282"
         sodipodi:cy="-10.065757"
         sodipodi:cx="228.04193"
         id="path3465"
         style="fill:#babdb6;fill-opacity:1;fill-rule:nonzero;stroke:none;stroke-width:2;stroke-linecap:square;stroke-linejoin:round;stroke-miterlimit:4;stroke-dasharray:none;stroke-dashoffset:0;stroke-opacity:1"
         sodipodi:type="arc"
         transform="matrix(-0.2143459,0.4358125,-0.4358125,-0.2143459,382.01155,347.92722)" />
      <path
         d="M 236.17366,-10.065757 A 8.1317282,8.1317282 0 1 1 219.9102,-10.065757 A 8.1317282,8.1317282 0 1 1 236.17366,-10.065757 z"
         sodipodi:ry="8.1317282"
         sodipodi:rx="8.1317282"
         sodipodi:cy="-10.065757"
         sodipodi:cx="228.04193"
         id="path3473"
         style="fill:#babdb6;fill-opacity:1;fill-rule:nonzero;stroke:none;stroke-width:2;stroke-linecap:square;stroke-linejoin:round;stroke-miterlimit:4;stroke-dasharray:none;stroke-dashoffset:0;stroke-opacity:1"
         sodipodi:type="arc"
         transform="matrix(-0.3011026,0.6122078,-0.6122078,-0.3011026,403.29838,330.01238)" />
      <path
         transform="matrix(-0.2143459,0.4358125,-0.4358125,-0.2143459,386.56473,370.86452)"
         sodipodi:type="arc"
         style="fill:#eeeeec;fill-opacity:1;fill-rule:nonzero;stroke:none;stroke-width:2;stroke-linecap:square;stroke-linejoin:round;stroke-miterlimit:4;stroke-dasharray:none;stroke-dashoffset:0;stroke-opacity:1"
         id="path3475"
         sodipodi:cx="228.04193"
         sodipodi:cy="-10.065757"
         sodipodi:rx="8.1317282"
         sodipodi:ry="8.1317282"
         d="M 236.17366,-10.065757 A 8.1317282,8.1317282 0 1 1 219.9102,-10.065757 A 8.1317282,8.1317282 0 1 1 236.17366,-10.065757 z" />
      <path
         d="M 236.17366,-10.065757 A 8.1317282,8.1317282 0 1 1 219.9102,-10.065757 A 8.1317282,8.1317282 0 1 1 236.17366,-10.065757 z"
         sodipodi:ry="8.1317282"
         sodipodi:rx="8.1317282"
         sodipodi:cy="-10.065757"
         sodipodi:cx="228.04193"
         id="path3479"
         style="fill:#888a85;fill-opacity:1;fill-rule:nonzero;stroke:none;stroke-width:2;stroke-linecap:square;stroke-linejoin:round;stroke-miterlimit:4;stroke-dasharray:none;stroke-dashoffset:0;stroke-opacity:1"
         sodipodi:type="arc"
         transform="matrix(-0.3011026,0.6122078,-0.6122078,-0.3011026,401.84213,287.90035)" />
      <path
         transform="matrix(-0.2143459,0.4358125,-0.4358125,-0.2143459,385.10848,328.7525)"
         sodipodi:type="arc"
         style="fill:#babdb6;fill-opacity:1;fill-rule:nonzero;stroke:none;stroke-width:2;stroke-linecap:square;stroke-linejoin:round;stroke-miterlimit:4;stroke-dasharray:none;stroke-dashoffset:0;stroke-opacity:1"
         id="path3481"
         sodipodi:cx="228.04193"
         sodipodi:cy="-10.065757"
         sodipodi:rx="8.1317282"
         sodipodi:ry="8.1317282"
         d="M 236.17366,-10.065757 A 8.1317282,8.1317282 0 1 1 219.9102,-10.065757 A 8.1317282,8.1317282 0 1 1 236.17366,-10.065757 z" />
      <path
         transform="matrix(-0.3011026,0.6122078,-0.6122078,-0.3011026,407.48911,269.97983)"
         sodipodi:type="arc"
         style="fill:#888a85;fill-opacity:1;fill-rule:nonzero;stroke:none;stroke-width:2;stroke-linecap:square;stroke-linejoin:round;stroke-miterlimit:4;stroke-dasharray:none;stroke-dashoffset:0;stroke-opacity:1"
         id="path3485"
         sodipodi:cx="228.04193"
         sodipodi:cy="-10.065757"
         sodipodi:rx="8.1317282"
         sodipodi:ry="8.1317282"
         d="M 236.17366,-10.065757 A 8.1317282,8.1317282 0 1 1 219.9102,-10.065757 A 8.1317282,8.1317282 0 1 1 236.17366,-10.065757 z" />
      <path
         d="M 236.17366,-10.065757 A 8.1317282,8.1317282 0 1 1 219.9102,-10.065757 A 8.1317282,8.1317282 0 1 1 236.17366,-10.065757 z"
         sodipodi:ry="8.1317282"
         sodipodi:rx="8.1317282"
         sodipodi:cy="-10.065757"
         sodipodi:cx="228.04193"
         id="path3487"
         style="fill:#babdb6;fill-opacity:1;fill-rule:nonzero;stroke:none;stroke-width:2;stroke-linecap:square;stroke-linejoin:round;stroke-miterlimit:4;stroke-dasharray:none;stroke-dashoffset:0;stroke-opacity:1"
         sodipodi:type="arc"
         transform="matrix(-0.2143459,0.4358125,-0.4358125,-0.2143459,390.75546,310.83197)" />
      <path
         transform="matrix(-0.3011026,0.6122078,-0.6122078,-0.3011026,415.68613,253.31347)"
         sodipodi:type="arc"
         style="fill:#888a85;fill-opacity:1;fill-rule:nonzero;stroke:none;stroke-width:2;stroke-linecap:square;stroke-linejoin:round;stroke-miterlimit:4;stroke-dasharray:none;stroke-dashoffset:0;stroke-opacity:1"
         id="path3497"
         sodipodi:cx="228.04193"
         sodipodi:cy="-10.065757"
         sodipodi:rx="8.1317282"
         sodipodi:ry="8.1317282"
         d="M 236.17366,-10.065757 A 8.1317282,8.1317282 0 1 1 219.9102,-10.065757 A 8.1317282,8.1317282 0 1 1 236.17366,-10.065757 z" />
      <path
         d="M 236.17366,-10.065757 A 8.1317282,8.1317282 0 1 1 219.9102,-10.065757 A 8.1317282,8.1317282 0 1 1 236.17366,-10.065757 z"
         sodipodi:ry="8.1317282"
         sodipodi:rx="8.1317282"
         sodipodi:cy="-10.065757"
         sodipodi:cx="228.04193"
         id="path3499"
         style="fill:#babdb6;fill-opacity:1;fill-rule:nonzero;stroke:none;stroke-width:2;stroke-linecap:square;stroke-linejoin:round;stroke-miterlimit:4;stroke-dasharray:none;stroke-dashoffset:0;stroke-opacity:1"
         sodipodi:type="arc"
         transform="matrix(-0.2143459,0.4358125,-0.4358125,-0.2143459,398.95248,294.16561)" />
      <path
         transform="matrix(-0.3011026,0.6122078,-0.6122078,-0.3011026,426.43319,237.90132)"
         sodipodi:type="arc"
         style="fill:#888a85;fill-opacity:1;fill-rule:nonzero;stroke:none;stroke-width:2;stroke-linecap:square;stroke-linejoin:round;stroke-miterlimit:4;stroke-dasharray:none;stroke-dashoffset:0;stroke-opacity:1"
         id="path3509"
         sodipodi:cx="228.04193"
         sodipodi:cy="-10.065757"
         sodipodi:rx="8.1317282"
         sodipodi:ry="8.1317282"
         d="M 236.17366,-10.065757 A 8.1317282,8.1317282 0 1 1 219.9102,-10.065757 A 8.1317282,8.1317282 0 1 1 236.17366,-10.065757 z" />
      <path
         d="M 236.17366,-10.065757 A 8.1317282,8.1317282 0 1 1 219.9102,-10.065757 A 8.1317282,8.1317282 0 1 1 236.17366,-10.065757 z"
         sodipodi:ry="8.1317282"
         sodipodi:rx="8.1317282"
         sodipodi:cy="-10.065757"
         sodipodi:cx="228.04193"
         id="path3511"
         style="fill:#babdb6;fill-opacity:1;fill-rule:nonzero;stroke:none;stroke-width:2;stroke-linecap:square;stroke-linejoin:round;stroke-miterlimit:4;stroke-dasharray:none;stroke-dashoffset:0;stroke-opacity:1"
         sodipodi:type="arc"
         transform="matrix(-0.2143459,0.4358125,-0.4358125,-0.2143459,409.69954,278.75346)" />
      <path
         d="M 236.17366,-10.065757 A 8.1317282,8.1317282 0 1 1 219.9102,-10.065757 A 8.1317282,8.1317282 0 1 1 236.17366,-10.065757 z"
         sodipodi:ry="8.1317282"
         sodipodi:rx="8.1317282"
         sodipodi:cy="-10.065757"
         sodipodi:cx="228.04193"
         id="path3515"
         style="fill:#888a85;fill-opacity:1;fill-rule:nonzero;stroke:none;stroke-width:2;stroke-linecap:square;stroke-linejoin:round;stroke-miterlimit:4;stroke-dasharray:none;stroke-dashoffset:0;stroke-opacity:1"
         sodipodi:type="arc"
         transform="matrix(-0.3011026,0.6122078,-0.6122078,-0.3011026,439.73029,223.74336)" />
      <path
         transform="matrix(-0.2143459,0.4358125,-0.4358125,-0.2143459,422.99664,264.5955)"
         sodipodi:type="arc"
         style="fill:#babdb6;fill-opacity:1;fill-rule:nonzero;stroke:none;stroke-width:2;stroke-linecap:square;stroke-linejoin:round;stroke-miterlimit:4;stroke-dasharray:none;stroke-dashoffset:0;stroke-opacity:1"
         id="path3517"
         sodipodi:cx="228.04193"
         sodipodi:cy="-10.065757"
         sodipodi:rx="8.1317282"
         sodipodi:ry="8.1317282"
         d="M 236.17366,-10.065757 A 8.1317282,8.1317282 0 1 1 219.9102,-10.065757 A 8.1317282,8.1317282 0 1 1 236.17366,-10.065757 z" />
      <path
         transform="matrix(-0.3011026,0.6122078,-0.6122078,-0.3011026,459.4025,212.72086)"
         sodipodi:type="arc"
         style="fill:#888a85;fill-opacity:1;fill-rule:nonzero;stroke:none;stroke-width:2;stroke-linecap:square;stroke-linejoin:round;stroke-miterlimit:4;stroke-dasharray:none;stroke-dashoffset:0;stroke-opacity:1"
         id="path3521"
         sodipodi:cx="228.04193"
         sodipodi:cy="-10.065757"
         sodipodi:rx="8.1317282"
         sodipodi:ry="8.1317282"
         d="M 236.17366,-10.065757 A 8.1317282,8.1317282 0 1 1 219.9102,-10.065757 A 8.1317282,8.1317282 0 1 1 236.17366,-10.065757 z" />
      <path
         d="M 236.17366,-10.065757 A 8.1317282,8.1317282 0 1 1 219.9102,-10.065757 A 8.1317282,8.1317282 0 1 1 236.17366,-10.065757 z"
         sodipodi:ry="8.1317282"
         sodipodi:rx="8.1317282"
         sodipodi:cy="-10.065757"
         sodipodi:cx="228.04193"
         id="path3523"
         style="fill:#babdb6;fill-opacity:1;fill-rule:nonzero;stroke:none;stroke-width:2;stroke-linecap:square;stroke-linejoin:round;stroke-miterlimit:4;stroke-dasharray:none;stroke-dashoffset:0;stroke-opacity:1"
         sodipodi:type="arc"
         transform="matrix(-0.2143459,0.4358125,-0.4358125,-0.2143459,442.66885,253.573)" />
    </g>
    <g
       id="g2654"
       transform="matrix(1.1001653,0.2220032,-0.2220032,1.1001653,48.494413,-73.222594)"
       inkscape:transform-center-x="-6.5311779"
       inkscape:transform-center-y="19.706546">
      <g
         id="g2643">
        <path
           d="M 216,300 L 216,338"
           id="path2502"
           style="stroke:#ffffff;stroke-width:60;stroke-linecap:round" />
      </g>
      <path
         style="stroke:#97c03d;stroke-width:36;stroke-linecap:round"
         id="path2526"
         d="M 216,300 L 216,338" />
    </g>
    <g
       id="g2600"
       transform="matrix(0.8972764,-0.6741989,0.6741989,0.8972764,-130.48868,15.240091)">
      <path
         style="stroke:#ffffff;stroke-width:60;stroke-linecap:round"
         id="path2506"
         d="M 136,162 L 136,239" />
      <path
         style="stroke:#97c03d;stroke-width:36;stroke-linecap:round"
         id="path2530"
         d="M 136,162 L 136,239" />
    </g>
    <g
       id="g2596"
       transform="matrix(0.9273871,0.6321408,-0.6321408,0.9273871,187.23695,-316.87914)">
      <path
         style="stroke:#ffffff;stroke-width:60;stroke-linecap:round"
         id="path2508"
         d="M 364,162 L 364,239" />
      <path
         style="stroke:#97c03d;stroke-width:36;stroke-linecap:round"
         id="path2532"
         d="M 364,162 L 364,239" />
    </g>
    <g
       id="g2632"
       transform="matrix(1.1223409,0,0,1.1223409,-21.628863,-35.741874)">
      <path
         style="stroke:#ffffff;stroke-width:30;stroke-linecap:round"
         id="path2498"
         d="M 303,49 L 291,67" />
      <path
         style="stroke:#ffffff;stroke-width:30;stroke-linecap:round"
         id="path2500"
         d="M 197,49 L 209,67" />
      <ellipse
         style="fill:#97c03d;stroke:#ffffff;stroke-width:12;stroke-linecap:round"
         sodipodi:ry="75"
         sodipodi:rx="90"
         sodipodi:cy="132"
         sodipodi:cx="250"
         id="ellipse2510"
         cy="132"
         cx="250"
         ry="75"
         rx="90" />
      <path
         style="fill:#97c03d;stroke:#ffffff;stroke-width:12;stroke-linecap:round"
         id="path2512"
         d="M 340,138 L 160,138 L 160,276 C 160,289.80712 171.19288,301 185,301 L 315,301 C 328.80712,301 340,289.80712 340,276 L 340,138 z" />
      <g
         id="g2514"
         style="fill:#ffffff;stroke:none;stroke-linecap:round">
        <circle
           cx="214"
           cy="99"
           r="9"
           id="circle2516"
           sodipodi:cx="214"
           sodipodi:cy="99"
           sodipodi:rx="9"
           sodipodi:ry="9" />
        <circle
           cx="286"
           cy="99"
           r="9"
           id="circle2518"
           sodipodi:cx="286"
           sodipodi:cy="99"
           sodipodi:rx="9"
           sodipodi:ry="9" />
      </g>
      <path
         style="stroke:#97c03d;stroke-width:6;stroke-linecap:round"
         id="path2522"
         d="M 303,49 L 279,85" />
      <path
         style="stroke:#97c03d;stroke-width:6;stroke-linecap:round"
         id="path2524"
         d="M 197,49 L 221,85" />
    </g>
  </g>
</svg>
